<svg xmlns="http://www.w3.org/2000/svg" viewBox="0 0 64 64" fill="none">
  <defs>
    <linearGradient id="g" x1="0" y1="0" x2="1" y2="1">
      <stop offset="0%" stop-color="#F59E0B"/>
      <stop offset="100%" stop-color="#6366F1"/>
    </linearGradient>
  </defs>
  <rect width="64" height="64" rx="14" fill="url(#g)"/>
  <g transform="translate(4.31, 42)" fill="white" stroke="white" stroke-width="1.5" stroke-linejoin="round">
    <path d="M15.42 3.13L15.42 0.00L14.02 0.00Q12.99 0.00 12.46 -0.22Q11.92 -0.44 11.73 -1.07Q11.54 -1.70 11.54 -2.92L11.54 -6.97Q11.54 -8.48 10.50 -9.40Q9.45 -10.33 7.49 -10.43L7.49 -10.69Q9.45 -10.81 10.50 -11.73Q11.54 -12.66 11.54 -14.15L11.54 -18.22Q11.54 -19.44 11.73 -20.07Q11.92 -20.70 12.46 -20.92Q12.99 -21.14 14.02 -21.14L15.42 -21.14L15.42 -24.27L13.04 -24.27Q10.90 -24.27 9.66 -23.77Q8.42 -23.26 7.90 -22.09Q7.37 -20.92 7.37 -18.88L7.37 -15.64Q7.37 -14.49 6.98 -13.78Q6.59 -13.07 5.66 -12.77Q4.73 -12.48 3.12 -12.55L3.12 -8.58Q4.73 -8.66 5.66 -8.36Q6.59 -8.06 6.98 -7.35Q7.37 -6.65 7.37 -5.49L7.37 -2.26Q7.37 -0.23 7.90 0.94Q8.42 2.12 9.66 2.63Q10.90 3.13 13.04 3.13ZM24.86 3.13L34.88 -24.27L30.67 -24.27L20.76 3.13ZM39.52 -13.97L39.52 -18.40L53.23 -11.12L53.23 -7.69L39.52 -0.41L39.52 -4.83L48.81 -9.26L48.81 -9.55Z"/>
  </g>
</svg>
