<svg xmlns="http://www.w3.org/2000/svg" viewBox="0 0 420 120" fill="none">
  <defs>
    <linearGradient id="bridge" x1="0" y1="0" x2="1" y2="0">
      <stop offset="0%" stop-color="#F59E0B"/>
      <stop offset="100%" stop-color="#6366F1"/>
    </linearGradient>
  </defs>
  <!-- {/> prefix -->
  <g transform="translate(10, 82)" fill="url(#bridge)" stroke="url(#bridge)" stroke-width="1.5" stroke-linejoin="round">
    <path d="M32.91 6.69L32.91 0.00L29.91 0.00Q27.72 0.00 26.58 -0.47Q25.44 -0.94 25.03 -2.28Q24.63 -3.63 24.63 -6.22L24.63 -14.88Q24.63 -18.09 22.39 -20.06Q20.16 -22.03 15.97 -22.25L15.97 -22.81Q20.16 -23.06 22.39 -25.03Q24.63 -27.00 24.63 -30.19L24.63 -38.88Q24.63 -41.47 25.03 -42.81Q25.44 -44.16 26.58 -44.63Q27.72 -45.09 29.91 -45.09L32.91 -45.09L32.91 -51.78L27.81 -51.78Q23.25 -51.78 20.61 -50.70Q17.97 -49.63 16.84 -47.13Q15.72 -44.63 15.72 -40.28L15.72 -33.38Q15.72 -30.91 14.89 -29.39Q14.06 -27.88 12.08 -27.25Q10.09 -26.63 6.66 -26.78L6.66 -18.31Q10.09 -18.47 12.08 -17.83Q14.06 -17.19 14.89 -15.69Q15.72 -14.19 15.72 -11.72L15.72 -4.81Q15.72 -0.50 16.84 2.02Q17.97 4.53 20.61 5.61Q23.25 6.69 27.81 6.69ZM53.03 6.69L74.41 -51.78L65.44 -51.78L44.28 6.69ZM84.31 -29.81L84.31 -39.25L113.56 -23.72L113.56 -16.41L84.31 -0.88L84.31 -10.31L104.13 -19.75L104.13 -20.38Z"/>
  </g>
  <!-- mvn -->
  <g transform="translate(175, 82)" fill="currentColor" stroke="currentColor" stroke-width="1.5" stroke-linejoin="round">
    <path d="M37.25 -26.59Q37.25 -30.75 35.58 -32.94Q33.91 -35.13 30.75 -35.13Q28.28 -35.13 26.59 -33.59Q24.91 -32.06 24.34 -29.31L23.41 -29.31Q22.88 -32.09 21.30 -33.61Q19.72 -35.13 17.38 -35.13Q14.84 -35.13 13.14 -33.58Q11.44 -32.03 10.88 -29.06L9.94 -29.06L9.94 -34.41L2.31 -34.41L2.31 0.00L9.72 0.00L9.72 -23.59Q9.72 -25.59 10.63 -26.78Q11.53 -27.97 13.03 -27.97Q14.50 -27.97 15.33 -26.89Q16.16 -25.81 16.16 -23.84L16.16 0.00L23.47 0.00L23.47 -23.59Q23.47 -25.59 24.38 -26.78Q25.28 -27.97 26.75 -27.97Q28.19 -27.97 29.02 -26.88Q29.84 -25.78 29.84 -23.81L29.84 0.00L37.25 0.00ZM41.41 -34.41L53.41 0.00L63.38 0.00L75.28 -34.41L66.06 -34.41L58.75 -8.13L58.22 -8.13L50.81 -34.41ZM81.47 0.00L90.19 0.00L90.19 -19.91Q90.19 -23.56 92.13 -25.72Q94.06 -27.88 97.28 -27.88Q100.50 -27.88 102.05 -26.02Q103.59 -24.16 103.59 -20.28L103.59 0.00L112.34 0.00L112.34 -22.28Q112.34 -28.56 109.41 -31.84Q106.47 -35.13 100.84 -35.13Q97.13 -35.13 94.42 -33.44Q91.72 -31.75 90.47 -28.63L89.94 -28.63L89.94 -34.41L81.47 -34.41Z"/>
  </g>
  <!-- pm -->
  <g transform="translate(289, 82)" fill="#F59E0B" stroke="#F59E0B" stroke-width="1.5" stroke-linejoin="round">
    <path d="M23.72 -34.94Q19.94 -34.94 17.45 -33.30Q14.97 -31.66 14.09 -28.53L13.44 -28.53L13.44 -34.41L4.44 -34.41L4.44 11.47L13.56 11.47L13.56 -5.81L14.19 -5.81Q15.06 -2.72 17.53 -1.06Q20.00 0.59 23.72 0.59Q27.69 0.59 30.48 -1.16Q33.28 -2.91 34.78 -6.23Q36.28 -9.56 36.28 -14.19L36.28 -20.16Q36.28 -24.84 34.78 -28.14Q33.28 -31.44 30.48 -33.19Q27.69 -34.94 23.72 -34.94ZM20.34 -27.72Q23.59 -27.72 25.47 -25.63Q27.34 -23.53 27.34 -19.88L27.34 -14.25Q27.34 -10.63 25.47 -8.52Q23.59 -6.41 20.34 -6.41Q17.06 -6.41 15.20 -8.50Q13.34 -10.59 13.34 -14.25L13.34 -19.88Q13.34 -23.53 15.20 -25.63Q17.06 -27.72 20.34 -27.72ZM75.81 -26.59Q75.81 -30.75 74.14 -32.94Q72.47 -35.13 69.31 -35.13Q66.84 -35.13 65.16 -33.59Q63.47 -32.06 62.91 -29.31L61.97 -29.31Q61.44 -32.09 59.86 -33.61Q58.28 -35.13 55.94 -35.13Q53.41 -35.13 51.70 -33.58Q50.00 -32.03 49.44 -29.06L48.50 -29.06L48.50 -34.41L40.88 -34.41L40.88 0.00L48.28 0.00L48.28 -23.59Q48.28 -25.59 49.19 -26.78Q50.09 -27.97 51.59 -27.97Q53.06 -27.97 53.89 -26.89Q54.72 -25.81 54.72 -23.84L54.72 0.00L62.03 0.00L62.03 -23.59Q62.03 -25.59 62.94 -26.78Q63.84 -27.97 65.31 -27.97Q66.75 -27.97 67.58 -26.88Q68.41 -25.78 68.41 -23.81L68.41 0.00L75.81 0.00Z"/>
  </g>
</svg>
