<?xml version="1.0" encoding="UTF-8" standalone="no" ?>
<!DOCTYPE svg PUBLIC "-//W3C//DTD SVG 1.1//EN" "http://www.w3.org/Graphics/SVG/1.1/DTD/svg11.dtd">
<svg xmlns="http://www.w3.org/2000/svg" xmlns:xlink="http://www.w3.org/1999/xlink" version="1.1" width="1280" height="1024" viewBox="0 0 1280 1024" xml:space="preserve">
<desc>Created with Fabric.js 5.3.0</desc>
<defs>
</defs>
<g transform="matrix(1 0 0 1 640 512)" id="background-logo"  >
<rect style="stroke: none; stroke-width: 0; stroke-dasharray: none; stroke-linecap: butt; stroke-dashoffset: 0; stroke-linejoin: miter; stroke-miterlimit: 4; fill: rgb(0,0,0); fill-rule: nonzero; opacity: 1;"  paint-order="stroke"  x="-640" y="-512" rx="0" ry="0" width="1280" height="1024" />
</g>
<g transform="matrix(1.9211538461538462 0 0 1.9211538461538462 893.896512477042 509.67933513360316)" id="tagline-7317859b-c796-4ba9-9e89-55b915abbe7a-logo"  >
<g style=""  paint-order="stroke"   >
		<g transform="matrix(1 0 0 1 0 0)" id="tagline-7317859b-c796-4ba9-9e89-55b915abbe7a-logo-path-0"  >
<path style="stroke: none; stroke-width: 0; stroke-dasharray: none; stroke-linecap: butt; stroke-dashoffset: 0; stroke-linejoin: miter; stroke-miterlimit: 4; fill: rgb(255,255,255); fill-rule: nonzero; opacity: 1;"  paint-order="stroke"  transform=" translate(-176.73000000000002, 22.78)" d="M 8.84 0 L 8.84 -34.48 L 25.09 0 L 30.46 0 L 46.78 -34.61 L 46.78 0 L 52.22 0 L 52.22 -45.56 L 46.65 -45.56 L 27.81 -5.58 L 8.91 -45.56 L 3.4 -45.56 L 3.4 0 Z M 109.75 0 L 128.79 -45.56 L 122.94 -45.56 L 106.83 -7 L 90.71 -45.56 L 84.86 -45.56 L 103.9 0 Z M 166.94 0 L 166.94 -37.81 L 193.73 0 L 199.58 0 L 199.58 -45.56 L 194.14 -45.56 L 194.14 -7.68 L 167.28 -45.56 L 161.43 -45.56 L 161.5 -45.49 L 161.5 0 Z M 237.66 0 L 237.66 -17.68 L 254.66 -17.68 C 262.48 -17.68 268.6 -23.8 268.6 -31.62 C 268.6 -39.44 262.48 -45.56 254.66 -45.56 L 232.22 -45.56 L 232.22 0 Z M 237.66 -22.44 L 237.66 -40.8 L 254.32 -40.8 C 259.83 -40.8 263.5 -37.13 263.5 -31.62 C 263.5 -26.11 259.83 -22.44 254.32 -22.44 Z M 306.68 0 L 306.68 -34.48 L 322.93 0 L 328.3 0 L 344.62 -34.61 L 344.62 0 L 350.06 0 L 350.06 -45.56 L 344.49 -45.56 L 325.65 -5.58 L 306.75 -45.56 L 301.24 -45.56 L 301.24 0 Z" stroke-linecap="round" />
</g>
</g>
</g>
<g transform="matrix(2.0813218097120343 0 0 2.0813218097120343 272.9712981045725 512.4044534412956)" id="logo-logo"  >
<g style="opacity: 0.92;"  paint-order="stroke"   >
		<g transform="matrix(1.0775958714528404 0 0 -1.0775958714528404 -78.97937538728775 6.811375743866307)"  >
<path style="stroke: none; stroke-width: 1; stroke-dasharray: none; stroke-linecap: butt; stroke-dashoffset: 0; stroke-linejoin: miter; stroke-miterlimit: 4; fill: rgb(255,255,255); fill-rule: nonzero; opacity: 1;"  paint-order="stroke"  transform=" translate(5.62367777983113, 17.9075)" d="M 0 0 C -1.627 2.512 -5.303 2.512 -6.931 0 L -26.457 -30.137 C -28.569000000000003 -33.396 -26.229 -37.699 -22.345 -37.699 L 5.937 -37.699 C 13.905000000000001 -37.699 18.706 -28.869 14.373000000000001 -22.182 z" stroke-linecap="round" />
</g>
		<g transform="matrix(1.0775958714528404 0 0 -1.0775958714528404 0.00004450451694992807 0)"  >
<path style="stroke: none; stroke-width: 1; stroke-dasharray: none; stroke-linecap: butt; stroke-dashoffset: 0; stroke-linejoin: miter; stroke-miterlimit: 4; fill: rgb(255,255,255); fill-rule: nonzero; opacity: 1;"  paint-order="stroke"  transform=" translate(39.123000000000005, 26.113)" d="M 0 0 C -11.751 0 -22.702 -5.953 -29.092 -15.815 L -39.123 -31.296999999999997 L -49.153999999999996 -15.814999999999998 C -55.544 -5.953 -66.495 0 -78.246 0 L -106.585 0 L -82.993 -36.411 C -76.604 -46.272000000000006 -65.65199999999999 -52.226 -53.900999999999996 -52.226 L -52.68299999999999 -52.226 L -25.561999999999994 -52.226 L -24.343999999999994 -52.226 C -12.592999999999995 -52.226 -1.6429999999999936 -46.272 4.747000000000007 -36.411 L 28.339 0 Z" stroke-linecap="round" />
</g>
		<g transform="matrix(1.0775958714528404 0 0 -1.0775958714528404 78.97981501884544 6.811779842318117)"  >
<path style="stroke: none; stroke-width: 1; stroke-dasharray: none; stroke-linecap: butt; stroke-dashoffset: 0; stroke-linejoin: miter; stroke-miterlimit: 4; fill: rgb(255,255,255); fill-rule: nonzero; opacity: 1;"  paint-order="stroke"  transform=" translate(20.832896845384994, -12.229125000000002)" d="M 0 0 L -19.525 30.137 C -21.153 32.648 -24.829 32.648 -26.457 30.137 L -40.829 7.955 C -45.162 1.2670000000000003 -40.362 -7.561999999999999 -32.394 -7.561999999999999 L -4.111 -7.561999999999999 C -0.228 -7.562 2.112 -3.26 0 0" stroke-linecap="round" />
</g>
</g>
</g>
</svg>